<mxfile host="app.diagrams.net" modified="2023-11-15T03:39:46.742Z" agent="Mozilla/5.0 (X11; Ubuntu; Linux x86_64; rv:109.0) Gecko/20100101 Firefox/118.0" etag="uTSN2HkNUppCAoARzLpe" version="22.1.1" type="device">
  <diagram name="Page-1" id="1IGFmVdQAuXWGYQNSHDF">
    <mxGraphModel dx="1362" dy="795" grid="1" gridSize="10" guides="1" tooltips="1" connect="1" arrows="1" fold="1" page="1" pageScale="1" pageWidth="850" pageHeight="1100" math="0" shadow="0">
      <root>
        <mxCell id="0" />
        <mxCell id="1" parent="0" />
        <mxCell id="I_eZ-q4jUByFUFN0KjnD-16" value="" style="endArrow=none;dashed=1;html=1;rounded=0;" edge="1" parent="1">
          <mxGeometry width="50" height="50" relative="1" as="geometry">
            <mxPoint x="400" y="760" as="sourcePoint" />
            <mxPoint x="400" y="210" as="targetPoint" />
          </mxGeometry>
        </mxCell>
        <mxCell id="I_eZ-q4jUByFUFN0KjnD-2" value="&lt;div&gt;&lt;ol&gt;&lt;li&gt;Battery powered&lt;/li&gt;&lt;li&gt;Battery system&lt;br&gt;&lt;/li&gt;&lt;li&gt;DC motors&lt;/li&gt;&lt;li&gt;DC brushed controller&lt;br&gt;&lt;/li&gt;&lt;li&gt;IR distance sensors&lt;br&gt;&lt;/li&gt;&lt;li&gt;Encoders&lt;/li&gt;&lt;li&gt;Gyroscope&lt;/li&gt;&lt;li&gt;Wireless communication&lt;/li&gt;&lt;li&gt;Battery charger&lt;/li&gt;&lt;li&gt;uController&lt;br&gt;&lt;/li&gt;&lt;/ol&gt;&lt;/div&gt;&lt;div&gt;&lt;br&gt;&lt;/div&gt;&lt;div&gt;&lt;br&gt;&lt;/div&gt;" style="text;html=1;strokeColor=none;fillColor=none;align=left;verticalAlign=middle;whiteSpace=wrap;rounded=0;" vertex="1" parent="1">
          <mxGeometry x="30" y="90" width="210" height="170" as="geometry" />
        </mxCell>
        <mxCell id="I_eZ-q4jUByFUFN0KjnD-3" value="&lt;div align=&quot;left&quot;&gt;&lt;ol&gt;&lt;li&gt;Micromouse size should be less than 25cm by 25cm&lt;/li&gt;&lt;li&gt;Maze cell size is 168mm by 168mm&lt;/li&gt;&lt;li&gt;Micromouse must navigate to center of maze&lt;/li&gt;&lt;li&gt;Micromouse must finish all runs within 10 minutes&lt;/li&gt;&lt;li&gt;Weight requirements?&lt;/li&gt;&lt;li&gt;Speed requirements?&lt;br&gt;&lt;/li&gt;&lt;/ol&gt;&lt;/div&gt;" style="text;html=1;strokeColor=none;fillColor=none;align=left;verticalAlign=middle;whiteSpace=wrap;rounded=0;" vertex="1" parent="1">
          <mxGeometry x="20" y="860" width="350" height="120" as="geometry" />
        </mxCell>
        <mxCell id="I_eZ-q4jUByFUFN0KjnD-4" value="DC brushed motor" style="rounded=0;whiteSpace=wrap;html=1;fillColor=#d5e8d4;strokeColor=#82b366;" vertex="1" parent="1">
          <mxGeometry x="630" y="470" width="120" height="60" as="geometry" />
        </mxCell>
        <mxCell id="I_eZ-q4jUByFUFN0KjnD-5" value="Encoder" style="rounded=0;whiteSpace=wrap;html=1;fillColor=#f8cecc;strokeColor=#b85450;" vertex="1" parent="1">
          <mxGeometry x="180" y="390" width="120" height="60" as="geometry" />
        </mxCell>
        <mxCell id="I_eZ-q4jUByFUFN0KjnD-6" value="uController" style="rounded=0;whiteSpace=wrap;html=1;fillColor=#ffe6cc;strokeColor=#d79b00;" vertex="1" parent="1">
          <mxGeometry x="310" y="320" width="180" height="280" as="geometry" />
        </mxCell>
        <mxCell id="I_eZ-q4jUByFUFN0KjnD-7" value="DC brushed controller" style="rounded=0;whiteSpace=wrap;html=1;fillColor=#d5e8d4;strokeColor=#82b366;" vertex="1" parent="1">
          <mxGeometry x="500" y="470" width="120" height="60" as="geometry" />
        </mxCell>
        <mxCell id="I_eZ-q4jUByFUFN0KjnD-8" value="Gyroscope" style="rounded=0;whiteSpace=wrap;html=1;fillColor=#f8cecc;strokeColor=#b85450;" vertex="1" parent="1">
          <mxGeometry x="180" y="320" width="120" height="60" as="geometry" />
        </mxCell>
        <mxCell id="I_eZ-q4jUByFUFN0KjnD-9" value="&lt;b&gt;&lt;font style=&quot;font-size: 15px;&quot;&gt;Requirements&lt;/font&gt;&lt;/b&gt;" style="text;html=1;strokeColor=none;fillColor=none;align=center;verticalAlign=middle;whiteSpace=wrap;rounded=0;" vertex="1" parent="1">
          <mxGeometry x="50" y="840" width="290" height="30" as="geometry" />
        </mxCell>
        <mxCell id="I_eZ-q4jUByFUFN0KjnD-10" value="&lt;b&gt;Hardware components&lt;br&gt;&lt;/b&gt;" style="text;html=1;strokeColor=none;fillColor=none;align=center;verticalAlign=middle;whiteSpace=wrap;rounded=0;" vertex="1" parent="1">
          <mxGeometry x="50" y="70" width="230" height="30" as="geometry" />
        </mxCell>
        <mxCell id="I_eZ-q4jUByFUFN0KjnD-11" value="Wireless comms" style="rounded=0;whiteSpace=wrap;html=1;fillColor=#d5e8d4;strokeColor=#82b366;" vertex="1" parent="1">
          <mxGeometry x="500" y="400" width="120" height="60" as="geometry" />
        </mxCell>
        <mxCell id="I_eZ-q4jUByFUFN0KjnD-12" value="IR distance sensors" style="rounded=0;whiteSpace=wrap;html=1;fillColor=#f8cecc;strokeColor=#b85450;" vertex="1" parent="1">
          <mxGeometry x="180" y="460" width="120" height="60" as="geometry" />
        </mxCell>
        <mxCell id="I_eZ-q4jUByFUFN0KjnD-14" value="&lt;b&gt;INPUTS&lt;/b&gt;" style="text;html=1;strokeColor=none;fillColor=none;align=center;verticalAlign=middle;whiteSpace=wrap;rounded=0;" vertex="1" parent="1">
          <mxGeometry x="210" y="260" width="60" height="30" as="geometry" />
        </mxCell>
        <mxCell id="I_eZ-q4jUByFUFN0KjnD-15" value="&lt;b&gt;OUTPUTS&lt;/b&gt;" style="text;html=1;strokeColor=none;fillColor=none;align=center;verticalAlign=middle;whiteSpace=wrap;rounded=0;" vertex="1" parent="1">
          <mxGeometry x="550" y="260" width="60" height="30" as="geometry" />
        </mxCell>
        <mxCell id="I_eZ-q4jUByFUFN0KjnD-18" value="&lt;b&gt;POWER&lt;/b&gt;" style="text;html=1;strokeColor=none;fillColor=none;align=center;verticalAlign=middle;whiteSpace=wrap;rounded=0;" vertex="1" parent="1">
          <mxGeometry x="365" y="770" width="60" height="30" as="geometry" />
        </mxCell>
        <mxCell id="I_eZ-q4jUByFUFN0KjnD-19" value="Battery System" style="rounded=0;whiteSpace=wrap;html=1;fillColor=#f5f5f5;strokeColor=#666666;fontColor=#333333;" vertex="1" parent="1">
          <mxGeometry x="340" y="610" width="120" height="60" as="geometry" />
        </mxCell>
        <mxCell id="I_eZ-q4jUByFUFN0KjnD-13" value="Battery" style="rounded=0;whiteSpace=wrap;html=1;fillColor=#f5f5f5;strokeColor=#666666;fontColor=#333333;" vertex="1" parent="1">
          <mxGeometry x="340" y="680" width="120" height="60" as="geometry" />
        </mxCell>
      </root>
    </mxGraphModel>
  </diagram>
</mxfile>
